<svg data-v-fde0c5aa="" xmlns="http://www.w3.org/2000/svg" viewBox="0 0 300 300" class="iconLeftSlogan"><defs data-v-fde0c5aa=""><linearGradient data-v-fde0c5aa="" gradientTransform="rotate(25)" id="8b8e9061-c43d-4ea0-922e-f5325f58f12f" x1="0%" y1="0%" x2="100%" y2="0%"><stop data-v-fde0c5aa="" offset="0%" stop-color="#000A68" stop-opacity="1"></stop><stop data-v-fde0c5aa="" offset="100%" stop-color="#00C4EE" stop-opacity="1"></stop></linearGradient></defs><rect data-v-fde0c5aa="" fill="url(#8b8e9061-c43d-4ea0-922e-f5325f58f12f)" x="0" y="0" width="300px" height="300px" class="logo-background-square"></rect><defs data-v-fde0c5aa=""></defs><g data-v-fde0c5aa="" id="829f76cb-de6a-4304-9fcf-b743cccb9242" fill="#ffffff" transform="matrix(1.441137376438911,0,0,1.441137376438911,89.0234664902182,125.56700936737691)"><path d="M7.10 8.82C7.94 8.46 8.37 7.72 8.37 6.89C8.37 5.35 6.96 4.36 5.39 4.36L1.37 4.36L1.37 13.32C2.23 13.51 3.86 13.70 5.06 13.70C7.27 13.70 8.80 12.47 8.80 10.94C8.80 9.61 7.92 9.05 7.10 8.82ZM3.27 6.07L4.99 6.07C5.87 6.07 6.49 6.45 6.49 7.18C6.49 7.85 5.87 8.26 4.99 8.26L3.27 8.26ZM4.95 11.98C4.55 11.98 3.79 11.94 3.27 11.81L3.27 9.67L4.95 9.67C5.96 9.67 6.82 9.97 6.82 10.73C6.82 11.51 6.00 11.98 4.95 11.98ZM12.04 5.37C12.70 5.37 13.25 4.83 13.25 4.20C13.25 3.55 12.70 3.02 12.04 3.02C11.39 3.02 10.86 3.55 10.86 4.20C10.86 4.83 11.39 5.37 12.04 5.37ZM13.02 6.62L10.17 6.62L10.17 8.09L11.28 8.09L11.28 13.52L13.02 13.52ZM18.33 6.44C16.32 6.44 14.64 8.04 14.64 10.09C14.64 12.13 16.32 13.73 18.33 13.73C20.34 13.73 22.04 12.13 22.04 10.09C22.04 8.04 20.34 6.44 18.33 6.44ZM18.33 8.12C19.32 8.12 20.19 8.83 20.19 10.09C20.19 11.35 19.32 12.04 18.33 12.04C17.35 12.04 16.49 11.35 16.49 10.09C16.49 8.83 17.35 8.12 18.33 8.12ZM27.36 6.07L28.90 6.07L28.90 4.36L23.91 4.36L23.91 6.07L25.46 6.07L25.46 11.81L23.91 11.81L23.91 13.52L28.90 13.52L28.90 11.81L27.36 11.81ZM39.36 6.44C38.40 6.44 37.68 7.04 37.13 7.78C36.71 6.89 35.88 6.44 34.90 6.44C33.97 6.44 33.43 6.96 33.00 7.48L33.00 6.62L31.27 6.62L31.27 13.52L33.00 13.52L33.00 9.02C33.37 8.53 33.82 8.13 34.40 8.13C35.18 8.13 35.70 8.59 35.70 9.52L35.71 13.52L37.45 13.52L37.45 9.08C37.83 8.56 38.24 8.13 38.84 8.13C39.62 8.13 40.15 8.59 40.15 9.52L40.17 13.52L41.90 13.52L41.90 9.28C41.90 7.40 40.77 6.44 39.36 6.44ZM46.62 6.44C44.84 6.44 43.41 7.81 43.41 10.12C43.41 12.41 44.84 13.73 46.50 13.73C47.52 13.73 48.30 13.10 48.71 12.36L48.71 13.52L50.45 13.52L50.45 6.62L48.71 6.62L48.71 7.40C48.19 6.82 47.37 6.44 46.62 6.44ZM46.98 8.13C47.65 8.13 48.22 8.48 48.71 9.00L48.71 9.98C48.73 11.22 47.85 11.99 46.94 11.99C45.90 11.99 45.21 11.16 45.21 10.12C45.21 9.08 45.90 8.13 46.98 8.13ZM55.32 6.44C53.54 6.44 52.10 7.81 52.10 10.12C52.10 12.41 53.54 13.73 55.19 13.73C56.22 13.73 57.00 13.10 57.41 12.36L57.41 13.56C57.41 14.64 56.42 15.41 55.19 15.41C54.03 15.41 53.20 14.93 52.58 14.63L52.58 16.27C53.28 16.68 54.09 17.01 55.30 17.01C57.34 17.01 59.14 15.68 59.14 13.34L59.14 6.62L57.41 6.62L57.41 7.40C56.89 6.82 56.07 6.44 55.32 6.44ZM55.67 8.15C56.34 8.15 56.92 8.48 57.41 9.00L57.41 9.98C57.42 11.22 56.55 11.98 55.63 11.98C54.59 11.98 53.91 11.16 53.91 10.12C53.91 9.08 54.59 8.15 55.67 8.15ZM67.55 9.87C67.55 7.86 66.34 6.44 64.30 6.44C62.28 6.44 60.80 8.13 60.80 10.14C60.80 12.22 62.47 13.73 64.50 13.73C65.56 13.73 66.29 13.38 66.68 13.10L66.68 11.53C66.25 11.80 65.58 12.15 64.57 12.15C63.52 12.15 62.74 11.54 62.55 10.60L67.55 10.60ZM62.58 9.46C62.78 8.54 63.38 7.96 64.26 7.96C65.05 7.96 65.82 8.46 65.88 9.46ZM77.45 13.59L77.45 4.36L75.55 4.36L75.55 9.97L70.14 4.29L69.44 4.29L69.44 13.52L71.34 13.52L71.34 8.00L76.75 13.59ZM86.16 9.87C86.16 7.86 84.94 6.44 82.91 6.44C80.88 6.44 79.41 8.13 79.41 10.14C79.41 12.22 81.07 13.73 83.11 13.73C84.16 13.73 84.90 13.38 85.29 13.10L85.29 11.53C84.86 11.80 84.19 12.15 83.18 12.15C82.13 12.15 81.35 11.54 81.16 10.60L86.16 10.60ZM81.18 9.46C81.39 8.54 81.99 7.96 82.87 7.96C83.66 7.96 84.42 8.46 84.49 9.46ZM90.25 6.62L90.25 4.61L89.36 4.61C88.92 6.02 88.16 6.86 87.27 7.18L87.27 8.07L88.51 8.07L88.51 11.50C88.51 12.88 89.37 13.73 90.60 13.73C91.40 13.73 91.89 13.45 92.23 13.11L92.23 11.73C91.92 11.92 91.59 12.04 91.10 12.04C90.54 12.04 90.25 11.66 90.25 11.05L90.25 8.07L92.16 8.07L92.16 6.62ZM97.88 10.81L97.88 9.17L93.76 9.17L93.76 10.81ZM107.84 4.33L105.96 4.33L105.96 9.79C105.96 11.18 105.12 11.87 103.89 11.88C102.66 11.89 101.83 11.18 101.83 9.79L101.83 4.33L99.93 4.33L99.93 9.90C99.93 12.29 101.68 13.71 103.89 13.71C106.11 13.71 107.84 12.29 107.84 9.90ZM113.34 9.80L116.16 13.52L118.64 13.52L114.65 8.35L118.23 4.36L115.83 4.36L112.34 8.46L112.34 4.36L110.44 4.36L110.44 13.52L112.34 13.52L112.34 10.92Z"></path></g><defs data-v-fde0c5aa=""></defs><g data-v-fde0c5aa="" id="ea16bcac-c317-434e-b99a-c0c617f6e248" stroke="none" fill="#ffffff" transform="matrix(1.187432021962856,0,0,1.187432021962856,40,131.0010876485943)"><path d="M4.029 14.362 14.362 4.028l.707.707L4.736 15.07zM17.135 27.47 27.47 17.135l.707.707-10.333 10.333zM4.029 17.841l.707-.707 10.333 10.334-.707.707zM17.135 4.735l.708-.707L28.176 14.36l-.707.707z"></path><path d="m16 1.414 1.683 1.683L16 4.779l-1.683-1.683zM16 0l-3.097 3.097L16 6.194l3.097-3.097zM16 27.221l1.683 1.683L16 30.586l-1.683-1.683zm0-1.415-3.097 3.097L16 32l3.097-3.097zM3.097 14.317 4.779 16l-1.683 1.683L1.414 16zm0-1.414L0 16l3.097 3.097L6.194 16zM28.903 14.317 30.586 16l-1.683 1.683L27.221 16zm0-1.414L25.806 16l3.097 3.097L32 16z"></path></g><defs data-v-fde0c5aa=""></defs><g data-v-fde0c5aa="" id="17b3a385-7b63-4533-a85d-3e5dbb098146" fill="#ffffff" transform="matrix(0.3608998371438887,0,0,0.3608998371438887,90.92564473430704,159.322866159681)"><path d="M7.71 2.21L0.20 2.21L0.20 3.22L3.43 3.22L3.43 11.48L4.48 11.48L4.48 3.22L7.71 3.22ZM22.48 2.21L22.48 6.33L17.09 6.33L17.09 2.21L16.04 2.21L16.04 11.48L17.09 11.48L17.09 7.35L22.48 7.35L22.48 11.48L23.53 11.48L23.53 2.21ZM39.62 3.22L39.62 2.21L32.80 2.21L32.80 11.48L39.62 11.48L39.62 10.47L33.85 10.47L33.85 7.35L39.00 7.35L39.00 6.33L33.85 6.33L33.85 3.22ZM59.35 2.21L58.30 2.21L58.30 11.48L59.35 11.48ZM75.56 2.21L75.56 10.01L69.83 2.21L68.61 2.21L68.61 11.48L69.66 11.48L69.66 3.65L75.39 11.48L76.61 11.48L76.61 2.21ZM89.78 2.21L85.88 2.21L85.88 11.48L89.78 11.48C91.99 11.48 94.04 9.74 94.04 6.85C94.04 3.95 91.99 2.21 89.78 2.21ZM89.74 10.49L86.93 10.49L86.93 3.21L89.74 3.21C91.71 3.21 92.99 4.86 92.99 6.85C92.99 8.83 91.71 10.49 89.74 10.49ZM109.55 3.22L109.55 2.21L102.73 2.21L102.73 11.48L109.55 11.48L109.55 10.47L103.78 10.47L103.78 7.35L108.93 7.35L108.93 6.33L103.78 6.33L103.78 3.22ZM119.29 8.18L122.42 8.18C124.39 8.18 125.61 7.03 125.61 5.19C125.61 3.37 124.39 2.21 122.42 2.21L118.24 2.21L118.24 11.48L119.29 11.48ZM122.35 3.21C123.80 3.21 124.56 3.96 124.56 5.19C124.56 6.44 123.80 7.20 122.35 7.20L119.29 7.20L119.29 3.21ZM140.85 3.22L140.85 2.21L134.04 2.21L134.04 11.48L140.85 11.48L140.85 10.47L135.09 10.47L135.09 7.35L140.24 7.35L140.24 6.33L135.09 6.33L135.09 3.22ZM156.49 2.21L156.49 10.01L150.77 2.21L149.55 2.21L149.55 11.48L150.60 11.48L150.60 3.65L156.32 11.48L157.54 11.48L157.54 2.21ZM170.72 2.21L166.81 2.21L166.81 11.48L170.72 11.48C172.93 11.48 174.97 9.74 174.97 6.85C174.97 3.95 172.93 2.21 170.72 2.21ZM170.67 10.49L167.86 10.49L167.86 3.21L170.67 3.21C172.65 3.21 173.92 4.86 173.92 6.85C173.92 8.83 172.65 10.49 170.67 10.49ZM190.48 3.22L190.48 2.21L183.67 2.21L183.67 11.48L190.48 11.48L190.48 10.47L184.72 10.47L184.72 7.35L189.87 7.35L189.87 6.33L184.72 6.33L184.72 3.22ZM206.12 2.21L206.12 10.01L200.40 2.21L199.18 2.21L199.18 11.48L200.23 11.48L200.23 3.65L205.95 11.48L207.17 11.48L207.17 2.21ZM223.02 2.21L215.50 2.21L215.50 3.22L218.74 3.22L218.74 11.48L219.79 11.48L219.79 3.22L223.02 3.22ZM247.80 2.21L244.59 10.29L241.39 2.21L240.24 2.21L243.99 11.48L245.20 11.48L248.95 2.21ZM260.68 2.21L259.36 2.21L255.43 11.48L256.59 11.48L257.73 8.79L262.32 8.79L263.45 11.48L264.61 11.48ZM258.13 7.83L260.02 3.30L261.91 7.83ZM272.79 2.21L272.79 11.48L278.89 11.48L278.89 10.47L273.84 10.47L273.84 2.21ZM288.30 2.21L287.25 2.21L287.25 11.48L288.30 11.48ZM301.48 2.21L297.57 2.21L297.57 11.48L301.48 11.48C303.69 11.48 305.73 9.74 305.73 6.85C305.73 3.95 303.69 2.21 301.48 2.21ZM301.43 10.49L298.62 10.49L298.62 3.21L301.43 3.21C303.41 3.21 304.68 4.86 304.68 6.85C304.68 8.83 303.41 10.49 301.43 10.49ZM318.40 2.21L317.09 2.21L313.15 11.48L314.31 11.48L315.45 8.79L320.04 8.79L321.17 11.48L322.34 11.48ZM315.85 7.83L317.74 3.30L319.63 7.83ZM336.27 2.21L328.75 2.21L328.75 3.22L331.98 3.22L331.98 11.48L333.03 11.48L333.03 3.22L336.27 3.22ZM345.65 2.21L344.60 2.21L344.60 11.48L345.65 11.48ZM359.03 2.10C356.22 2.10 354.33 4.21 354.33 6.85C354.33 9.48 356.22 11.59 359.03 11.59C361.84 11.59 363.73 9.48 363.73 6.85C363.73 4.21 361.84 2.10 359.03 2.10ZM359.03 10.57C356.78 10.57 355.38 8.93 355.38 6.85C355.38 4.76 356.78 3.12 359.03 3.12C361.28 3.12 362.68 4.76 362.68 6.85C362.68 8.93 361.28 10.57 359.03 10.57ZM379.36 2.21L379.36 10.01L373.63 2.21L372.41 2.21L372.41 11.48L373.46 11.48L373.46 3.65L379.19 11.48L380.41 11.48L380.41 2.21ZM399.66 2.21L399.66 11.48L405.76 11.48L405.76 10.47L400.71 10.47L400.71 2.21ZM418.28 2.21L416.96 2.21L413.03 11.48L414.19 11.48L415.32 8.79L419.92 8.79L421.05 11.48L422.21 11.48ZM415.73 7.83L417.62 3.30L419.51 7.83ZM433.20 7.81L437.08 2.21L435.81 2.21L432.67 6.72L429.53 2.21L428.26 2.21L432.15 7.81L432.15 11.48L433.20 11.48ZM452.03 3.22L452.03 2.21L445.21 2.21L445.21 11.48L452.03 11.48L452.03 10.47L446.26 10.47L446.26 7.35L451.42 7.35L451.42 6.33L446.26 6.33L446.26 3.22ZM461.78 7.92L465.00 7.92L467.24 11.48L468.48 11.48L466.05 7.74C467.08 7.50 468.29 6.90 468.29 5.11C468.29 3.35 467.07 2.21 465.16 2.21L460.73 2.21L460.73 11.48L461.78 11.48ZM461.78 3.21L465.04 3.21C466.35 3.21 467.24 3.93 467.24 5.11C467.24 6.55 465.98 6.93 464.98 6.93L461.78 6.93Z"></path></g></svg>